# Blender v2.65 (sub 0) OBJ File: ''
# www.blender.org
mtllib model.mtl
o icosahedron1_default2
v -0.645123 -1.043832 1.023485
v -0.898000 -0.538078 1.207211
v -1.425623 -0.538078 0.481000
v -1.172746 -1.043831 0.297274
v -0.409163 -1.515752 0.297274
v -1.172746 -1.043831 -0.297275
v -0.409163 -1.515752 -0.297275
v 0.156286 -1.515752 0.481000
v -0.079674 -1.043832 1.207211
v 1.425623 0.538078 0.481000
v 1.172746 1.043831 0.297275
v 0.645123 1.043831 1.023485
v 0.898000 0.538078 1.207211
v 1.279792 -0.225505 0.929823
v 0.488837 0.225505 1.504485
v 0.870628 -0.538078 1.227097
v 1.436078 -0.538078 0.448823
v 1.581909 0.225505 0.000000
v 1.172746 1.043831 -0.297274
v 0.409163 1.515752 -0.297274
v 0.409163 1.515752 0.297275
v -0.156286 1.515752 0.481000
v 0.079674 1.043831 1.207211
v -0.016917 0.538078 1.504485
v -1.425623 -0.538078 -0.481000
v -1.581909 -0.225505 -0.000000
v -1.436078 0.538078 -0.448823
v -1.279792 0.225505 -0.929823
v -0.898000 -0.538078 -1.207211
v -0.870628 0.538078 -1.227097
v -0.488837 -0.225505 -1.504485
v -0.645123 -1.043831 -1.023485
v -1.279792 0.225505 0.929823
v -1.436078 0.538078 0.448823
v -0.488837 -0.225505 1.504485
v -0.870628 0.538078 1.227098
v 0.774038 -1.043832 0.929823
v 1.123505 -1.043832 0.448823
v 0.016917 -0.538078 1.504485
v -0.774038 1.043832 -0.929823
v -1.123505 1.043832 -0.448823
v -0.505753 1.515752 0.000000
v -0.156286 1.515752 -0.481000
v 0.079674 1.043832 -1.207211
v 0.645123 1.043832 -1.023485
v -0.016917 0.538078 -1.504485
v -1.123505 1.043831 0.448823
v 1.123505 -1.043831 -0.448823
v 1.436078 -0.538078 -0.448823
v 0.505753 -1.515752 -0.000000
v 0.156286 -1.515752 -0.481000
v 0.774038 -1.043831 -0.929823
v -0.774038 1.043831 0.929823
v 1.279792 -0.225505 -0.929823
v 1.425623 0.538078 -0.481000
v -0.079674 -1.043831 -1.207211
v 0.488837 0.225505 -1.504485
v 0.016917 -0.538078 -1.504485
v 0.898000 0.538078 -1.207211
v 0.870628 -0.538078 -1.227098
vn -0.688191 -0.525731 0.500000
vn -0.491124 -0.794655 0.356822
vn -0.525731 -0.850651 0.000000
vn -0.162460 -0.850651 0.500000
vn 0.688191 0.525731 0.500000
vn 0.794654 0.187592 0.577350
vn 0.587785 -0.000000 0.809017
vn 0.951057 -0.000000 0.309017
vn 0.525731 0.850651 0.000000
vn 0.491123 0.794654 0.356822
vn 0.162460 0.850651 0.500000
vn -0.951057 0.000000 -0.309017
vn -0.794655 -0.187592 -0.577350
vn -0.587785 0.000000 -0.809017
vn -0.688191 -0.525731 -0.500000
vn -0.951057 0.000000 0.309017
vn -0.794654 -0.187593 0.577350
vn -0.587785 -0.000000 0.809017
vn 0.303531 -0.187593 0.934172
vn 0.000000 -0.000000 1.000000
vn 0.262866 -0.525731 0.809017
vn -0.425325 0.850651 -0.309017
vn -0.187593 0.794655 -0.577350
vn 0.162460 0.850651 -0.500000
vn -0.262866 0.525731 -0.809017
vn -0.850651 0.525731 0.000000
vn -0.982247 0.187593 0.000000
vn 0.850651 -0.525731 -0.000000
vn 0.607062 -0.794654 -0.000000
vn 0.425325 -0.850651 0.309017
vn 0.425325 -0.850651 -0.309017
vn -0.187592 0.794654 0.577350
vn -0.425325 0.850651 0.309017
vn -0.262866 0.525731 0.809017
vn 0.951057 -0.000000 -0.309017
vn 0.982247 -0.187593 -0.000000
vn -0.491123 -0.794654 -0.356822
vn -0.162460 -0.850651 -0.500000
vn -0.303531 0.187592 0.934172
vn -0.303531 0.187593 -0.934172
vn -0.000000 0.000000 -1.000000
vn -0.607062 0.794654 0.000000
vn 0.187593 -0.794655 0.577350
vn 0.688191 0.525731 -0.500000
vn 0.794654 0.187593 -0.577350
vn 0.587785 0.000000 -0.809017
vn 0.491124 0.794655 -0.356822
vn 0.303531 -0.187592 -0.934172
vn 0.262866 -0.525731 -0.809017
vn 0.187592 -0.794654 -0.577350
vn 0.723607 -0.447213 -0.525731
vn 0.276393 0.447213 -0.850651
vn 0.276393 0.447214 -0.850651
vn -0.276393 -0.447214 0.850651
vn -0.000000 1.000000 0.000000
vn -0.276393 -0.447213 -0.850651
vn -0.276393 -0.447214 -0.850651
vn -0.723607 0.447213 0.525731
vn -0.000000 -1.000000 -0.000000
vn 0.894427 0.447214 -0.000000
vn -0.723607 0.447214 -0.525731
vn 0.723607 -0.447214 0.525731
vn -0.894427 -0.447214 -0.000000
vn 0.276393 0.447214 0.850651
vn 0.276393 0.447213 0.850651
usemtl default2
s off
f 1//1 2//1 3//1
f 1//1 3//1 4//1
f 5//2 1//2 4//2
f 4//3 6//3 7//3
f 4//3 7//3 5//3
f 9//4 1//4 5//4
f 9//4 5//4 8//4
f 10//5 11//5 12//5
f 10//5 12//5 13//5
f 13//6 14//6 10//6
f 13//7 15//7 16//7
f 13//7 16//7 14//7
f 14//8 17//8 18//8
f 14//8 18//8 10//8
f 11//9 19//9 20//9
f 11//9 20//9 21//9
f 21//10 12//10 11//10
f 21//11 22//11 23//11
f 21//11 23//11 12//11
f 25//12 26//12 27//12
f 25//12 27//12 28//12
f 28//13 29//13 25//13
f 28//14 30//14 31//14
f 28//14 31//14 29//14
f 29//15 32//15 6//15
f 29//15 6//15 25//15
f 33//16 34//16 26//16
f 33//16 26//16 3//16
f 3//17 2//17 33//17
f 2//18 35//18 36//18
f 2//18 36//18 33//18
f 15//19 39//19 16//19
f 15//20 24//20 35//20
f 15//20 35//20 39//20
f 39//21 9//21 37//21
f 39//21 37//21 16//21
f 40//22 41//22 42//22
f 40//22 42//22 43//22
f 43//23 44//23 40//23
f 43//24 20//24 45//24
f 43//24 45//24 44//24
f 44//25 46//25 30//25
f 44//25 30//25 40//25
f 34//26 47//26 41//26
f 34//26 41//26 27//26
f 27//27 26//27 34//27
f 48//28 49//28 17//28
f 48//28 17//28 38//28
f 38//29 50//29 48//29
f 38//30 37//30 8//30
f 38//30 8//30 50//30
f 50//31 51//31 52//31
f 50//31 52//31 48//31
f 22//32 53//32 23//32
f 22//33 42//33 47//33
f 22//33 47//33 53//33
f 53//34 36//34 24//34
f 53//34 24//34 23//34
f 49//35 54//35 55//35
f 49//35 55//35 18//35
f 18//36 17//36 49//36
f 32//37 7//37 6//37
f 32//38 56//38 51//38
f 32//38 51//38 7//38
f 36//39 35//39 24//39
f 46//40 31//40 30//40
f 46//41 57//41 58//41
f 46//41 58//41 31//41
f 42//42 41//42 47//42
f 9//43 8//43 37//43
f 59//44 45//44 19//44
f 59//44 19//44 55//44
f 55//45 54//45 59//45
f 54//46 60//46 57//46
f 54//46 57//46 59//46
f 19//47 45//47 20//47
f 57//48 60//48 58//48
f 60//49 52//49 56//49
f 60//49 56//49 58//49
f 52//50 51//50 56//50
f 49//51 48//51 52//51
f 54//51 49//51 52//51
f 54//51 52//51 60//51
f 46//52 44//52 45//52
f 46//53 45//53 59//53
f 57//53 46//53 59//53
f 39//54 35//54 2//54
f 2//54 1//54 39//54
f 39//54 1//54 9//54
f 42//55 22//55 21//55
f 42//55 21//55 20//55
f 43//55 42//55 20//55
f 29//56 31//56 58//56
f 32//57 29//57 58//57
f 32//57 58//57 56//57
f 33//58 36//58 53//58
f 34//58 33//58 53//58
f 34//58 53//58 47//58
f 50//59 8//59 5//59
f 50//59 5//59 7//59
f 51//59 50//59 7//59
f 11//60 10//60 18//60
f 19//60 11//60 18//60
f 19//60 18//60 55//60
f 28//61 27//61 41//61
f 28//61 41//61 40//61
f 30//61 28//61 40//61
f 14//62 16//62 37//62
f 14//62 37//62 38//62
f 17//62 14//62 38//62
f 4//63 3//63 26//63
f 6//63 4//63 26//63
f 6//63 26//63 25//63
f 12//64 23//64 24//64
f 13//64 12//64 24//64
f 13//65 24//65 15//65
